<?xml version="1.0" encoding="UTF-8" standalone="no" ?>
<!DOCTYPE svg PUBLIC "-//W3C//DTD SVG 1.1//EN" "http://www.w3.org/Graphics/SVG/1.1/DTD/svg11.dtd">
<svg xmlns="http://www.w3.org/2000/svg" xmlns:xlink="http://www.w3.org/1999/xlink" version="1.1" width="55" height="55" viewBox="0 0 55 55" xml:space="preserve">
<rect x="0" y="0" width="100%" height="100%" fill="transparent"></rect>
<g transform="matrix(1 0 0 1 27.5 27.5)"  >
<rect style="stroke: none; stroke-width: 1; stroke-dasharray: none; stroke-linecap: butt; stroke-dashoffset: 0; stroke-linejoin: miter; stroke-miterlimit: 4; fill: rgb(255,255,255); fill-rule: nonzero; opacity: 1; visibility: hidden;" vector-effect="non-scaling-stroke"  x="-27.5" y="-27.5" rx="0" ry="0" width="1080" height="1080" />
</g>
<g transform="matrix(1 0 0 1 27.5 27.5)" >
</g>
<g transform="matrix(0.71 0 0 0.71 27.5 27.5)" >
<circle style="stroke: rgb(0,0,0); stroke-width: 0; stroke-dasharray: none; stroke-linecap: butt; stroke-dashoffset: 0; stroke-linejoin: miter; stroke-miterlimit: 4; fill: rgb(221,18,18); fill-rule: nonzero; opacity: 1;" vector-effect="non-scaling-stroke"  cx="0" cy="0" r="35" />
</g>
<g transform="matrix(0 -1 1 0 27.5 27.5)"  >
<g style="" vector-effect="non-scaling-stroke"  >
		<g transform="matrix(1 0 0 1 0 -14)"  >
<path style="stroke: rgb(0,0,0); stroke-width: 1.5; stroke-dasharray: none; stroke-linecap: round; stroke-dashoffset: 0; stroke-linejoin: miter; stroke-miterlimit: 4; fill: none; fill-rule: evenodd; opacity: 1;" vector-effect="non-scaling-stroke"  transform=" translate(-22.5, -8.82)" d="M 22.5 11.63 L 22.5 6" stroke-linecap="round" />
</g>
		<g transform="matrix(1 0 0 1 0 -4.31)"  >
<path style="stroke: rgb(0,0,0); stroke-width: 1.5; stroke-dasharray: none; stroke-linecap: butt; stroke-dashoffset: 0; stroke-linejoin: miter; stroke-miterlimit: 4; fill: rgb(0,0,0); fill-rule: evenodd; opacity: 1;" vector-effect="non-scaling-stroke"  transform=" translate(-22.5, -18.5)" d="M 22.5 25 C 22.5 25 27 17.5 25.5 14.5 C 25.5 14.5 24.5 12 22.5 12 C 20.5 12 19.5 14.5 19.5 14.5 C 18 17.5 22.5 25 22.5 25" stroke-linecap="round" />
</g>
		<g transform="matrix(1 0 0 1 0 4.97)"  >
<path style="stroke: rgb(0,0,0); stroke-width: 1.5; stroke-dasharray: none; stroke-linecap: round; stroke-dashoffset: 0; stroke-linejoin: round; stroke-miterlimit: 4; fill: rgb(0,0,0); fill-rule: evenodd; opacity: 1;" vector-effect="non-scaling-stroke"  transform=" translate(-22.5, -27.78)" d="M 12.5 37 C 18 40.5 27 40.5 32.5 37 L 32.5 30 C 32.5 30 41.5 25.5 38.5 19.5 C 34.5 13 25 16 22.5 23.5 L 22.5 27 L 22.5 23.5 C 20 16 10.5 13 6.5 19.5 C 3.5 25.5 12.5 30 12.5 30 L 12.5 37" stroke-linecap="round" />
</g>
		<g transform="matrix(1 0 0 1 0 -14.81)"  >
<path style="stroke: rgb(0,0,0); stroke-width: 1.5; stroke-dasharray: none; stroke-linecap: round; stroke-dashoffset: 0; stroke-linejoin: miter; stroke-miterlimit: 4; fill: none; fill-rule: evenodd; opacity: 1;" vector-effect="non-scaling-stroke"  transform=" translate(-22.5, -8)" d="M 20 8 L 25 8" stroke-linecap="round" />
</g>
		<g transform="matrix(1 0 0 1 0 0.44)"  >
<path style="stroke: rgb(255,255,255); stroke-width: 1.5; stroke-dasharray: none; stroke-linecap: round; stroke-dashoffset: 0; stroke-linejoin: round; stroke-miterlimit: 4; fill: none; fill-rule: evenodd; opacity: 1;" vector-effect="non-scaling-stroke"  transform=" translate(-22.5, -23.26)" d="M 32 29.5 C 32 29.5 40.5 25.5 38.03 19.85 C 34.15 14 25 18 22.5 24.5 L 22.5 26.6 L 22.5 24.5 C 20 18 10.85 14 6.97 19.85 C 4.5 25.5 13 29.5 13 29.5" stroke-linecap="round" />
</g>
		<g transform="matrix(1 0 0 1 0 9.56)"  >
<path style="stroke: rgb(255,255,255); stroke-width: 1.5; stroke-dasharray: none; stroke-linecap: round; stroke-dashoffset: 0; stroke-linejoin: round; stroke-miterlimit: 4; fill: none; fill-rule: evenodd; opacity: 1;" vector-effect="non-scaling-stroke"  transform=" translate(-22.5, -32.38)" d="M 12.5 30 C 18 27 27 27 32.5 30 M 12.5 33.5 C 18 30.5 27 30.5 32.5 33.5 M 12.5 37 C 18 34 27 34 32.5 37" stroke-linecap="round" />
</g>
</g>
</g>
</svg>