<?xml version="1.0" encoding="UTF-8" standalone="no" ?>
<!DOCTYPE svg PUBLIC "-//W3C//DTD SVG 1.1//EN" "http://www.w3.org/Graphics/SVG/1.1/DTD/svg11.dtd">
<svg xmlns="http://www.w3.org/2000/svg" xmlns:xlink="http://www.w3.org/1999/xlink" version="1.1" width="550" height="550" viewBox="0 0 550 550" xml:space="preserve">
<g transform="matrix(1 0 0 1 275 275)" >
<rect style="stroke: none; stroke-width: 1; stroke-dasharray: none; stroke-linecap: butt; stroke-dashoffset: 0; stroke-linejoin: miter; stroke-miterlimit: 4; fill: rgb(255,255,255); fill-rule: nonzero; opacity: 1; visibility: hidden;" vector-effect="non-scaling-stroke"  x="-275" y="-275" rx="0" ry="0" width="1080" height="1080" />
</g>
<g transform="matrix(1 0 0 1 275 275)" >
</g>
<g transform="matrix(7.23 0 0 7.23 275 275)" >
<circle style="stroke: rgb(0,0,0); stroke-width: 0; stroke-dasharray: none; stroke-linecap: butt; stroke-dashoffset: 0; stroke-linejoin: miter; stroke-miterlimit: 4; fill: rgb(8,175,26); fill-rule: nonzero; opacity: 1;" vector-effect="non-scaling-stroke"  cx="0" cy="0" r="35" />
</g>
<g transform="matrix(1 0 0 1 275 275)"  >
<g style="" vector-effect="non-scaling-stroke"   >
		<g transform="matrix(1.56 0 0 1.56 0 -28.53)"  >
<polygon style="stroke: rgb(8,59,67); stroke-width: 1; stroke-dasharray: none; stroke-linecap: round; stroke-dashoffset: 0; stroke-linejoin: round; stroke-miterlimit: 4; fill: rgb(255,255,255); fill-rule: nonzero; opacity: 1;" vector-effect="non-scaling-stroke"  points="0,-70.78 -60.75,8.41 -117.7,-39.87 -98.17,70.78 98.17,70.78 117.7,-39.87 60.75,8.41 0,-70.78 " />
</g>
		<g transform="matrix(1.56 0 0 1.56 0 110.59)"  >
<polygon style="stroke: rgb(8,59,67); stroke-width: 1; stroke-dasharray: none; stroke-linecap: round; stroke-dashoffset: 0; stroke-linejoin: round; stroke-miterlimit: 4; fill: rgb(255,255,255); fill-rule: nonzero; opacity: 1;" vector-effect="non-scaling-stroke"  points="104.14,18.26 98.17,-18.26 -98.17,-18.26 -104.14,18.26 104.14,18.26 " />
</g>
		<g transform="matrix(1.56 0 0 1.56 0 -5.08)"  >
<polygon style="stroke: none; stroke-width: 1; stroke-dasharray: none; stroke-linecap: butt; stroke-dashoffset: 0; stroke-linejoin: miter; stroke-miterlimit: 4; fill: rgb(255,255,255); fill-rule: nonzero; opacity: 1;" vector-effect="non-scaling-stroke"  points="0,25.68 -19.89,5.79 0,-25.68 19.89,5.79 0,25.68 " />
</g>
</g>
</g>
</svg>